/* XPM */
const char * def_biff_r[] = {
"24 19 11 1",
" 	c None",
".	c #08CE00",
"+	c #181818",
"@	c #8C94BD",
"#	c #C61010",
"$	c #C6CEF7",
"%	c #F77B9C",
"&	c #FF4242",
"*	c #FFB5C6",
"=	c #FFDEE7",
"-	c #FFFFFF",
"     ===============    ",
"   ==*****************  ",
"   =@@-------------@@*+ ",
"  =*@$@-----------@$@*% ",
"  =*@$@-----------@$@*%+",
"  =*@-$@---------@$$@*%+",
"  =*@-$@---------@$$@*%+",
"  =*@--$@--&&&--@$-$@*%+",
"  =*@---$@@@&#@@$$-$@*%+",
"  =*@---@$$$#$$$@--$@*%+",
"  =*@--@---------@-$@*%+",
"  =*@-@-----------@$@*%+",
"  =*@@$$$$$$$$$$$$$@@*%+",
"   *@@@@@@@@@@@@@@@@@*++",
"   %****************%%+ ",
"  %****%%%%%%%%%%%%%+++ ",
" %**%%%++++++++++++++   ",
"%%%%++++                ",
" ++++                   "};
